<svg width="131" height="23" viewBox="0 0 131 23" fill="none" xmlns="http://www.w3.org/2000/svg">
<g clip-path="url(#clip0_1479_17216)">
<path d="M20.1311 8.41927C20.0734 8.24946 19.9673 8.10025 19.8258 7.99006C19.6843 7.87987 19.5137 7.81353 19.3349 7.79922L14.1057 7.38371L11.8429 2.3747C11.7709 2.21337 11.6536 2.07634 11.5054 1.98016C11.3572 1.88397 11.1843 1.83274 11.0076 1.83264C10.8309 1.83254 10.658 1.88359 10.5097 1.97961C10.3613 2.07563 10.244 2.21253 10.1717 2.37378L7.90891 7.38371L2.67976 7.79922C2.50407 7.81314 2.3361 7.87738 2.19597 7.98425C2.05583 8.09113 1.94945 8.23612 1.88955 8.40187C1.82966 8.56762 1.81878 8.74712 1.85823 8.91889C1.89768 9.09066 1.98578 9.24743 2.11199 9.37044L5.9763 13.1375L4.60962 19.0555C4.56812 19.2347 4.58142 19.4221 4.64779 19.5936C4.71417 19.7651 4.83055 19.9127 4.98183 20.0172C5.13312 20.1217 5.31233 20.1783 5.4962 20.1797C5.68008 20.1811 5.86013 20.1272 6.01299 20.025L11.0073 16.6955L16.0017 20.025C16.1579 20.1288 16.3422 20.1822 16.5297 20.1781C16.7171 20.1739 16.8989 20.1125 17.0504 20.002C17.202 19.8916 17.316 19.7373 17.3773 19.5601C17.4386 19.3828 17.4441 19.1911 17.3931 19.0106L15.7155 13.1403L19.8761 9.39612C20.1485 9.15031 20.2485 8.7669 20.1311 8.41927Z" fill="#F3CD03"/>
<path d="M47.1457 8.41927C47.0881 8.24946 46.9819 8.10025 46.8404 7.99006C46.699 7.87987 46.5283 7.81353 46.3495 7.79922L41.1204 7.38371L38.8576 2.3747C38.7855 2.21337 38.6683 2.07634 38.5201 1.98016C38.3719 1.88397 38.199 1.83274 38.0223 1.83264C37.8456 1.83254 37.6726 1.88359 37.5243 1.97961C37.376 2.07563 37.2586 2.21253 37.1864 2.37378L34.9236 7.38371L29.6944 7.79922C29.5187 7.81314 29.3508 7.87738 29.2106 7.98425C29.0705 8.09113 28.9641 8.23612 28.9042 8.40187C28.8443 8.56762 28.8334 8.74712 28.8729 8.91889C28.9123 9.09066 29.0004 9.24743 29.1266 9.37044L32.9909 13.1375L31.6243 19.0555C31.5828 19.2347 31.5961 19.4221 31.6624 19.5936C31.7288 19.7651 31.8452 19.9127 31.9965 20.0172C32.1478 20.1217 32.327 20.1783 32.5109 20.1797C32.6947 20.1811 32.8748 20.1272 33.0276 20.025L38.022 16.6955L43.0163 20.025C43.1726 20.1288 43.3568 20.1822 43.5443 20.1781C43.7318 20.1739 43.9135 20.1125 44.0651 20.002C44.2166 19.8916 44.3307 19.7373 44.392 19.5601C44.4532 19.3828 44.4587 19.1911 44.4078 19.0106L42.7301 13.1403L46.8907 9.39612C47.1631 9.15031 47.2631 8.7669 47.1457 8.41927Z" fill="#F3CD03"/>
<path d="M74.1564 8.41927C74.0988 8.24946 73.9927 8.10025 73.8512 7.99006C73.7097 7.87987 73.539 7.81353 73.3603 7.79922L68.1311 7.38371L65.8683 2.3747C65.7963 2.21337 65.679 2.07634 65.5308 1.98016C65.3826 1.88397 65.2097 1.83274 65.033 1.83264C64.8563 1.83254 64.6834 1.88359 64.535 1.97961C64.3867 2.07563 64.2694 2.21253 64.1971 2.37378L61.9343 7.38371L56.7051 7.79922C56.5295 7.81314 56.3615 7.87738 56.2214 7.98425C56.0812 8.09113 55.9748 8.23612 55.9149 8.40187C55.855 8.56762 55.8442 8.74712 55.8836 8.91889C55.9231 9.09066 56.0112 9.24743 56.1374 9.37044L60.0017 13.1375L58.635 19.0555C58.5935 19.2347 58.6068 19.4221 58.6732 19.5936C58.7396 19.7651 58.8559 19.9127 59.0072 20.0172C59.1585 20.1217 59.3377 20.1783 59.5216 20.1797C59.7055 20.1811 59.8855 20.1272 60.0384 20.025L65.0327 16.6955L70.0271 20.025C70.1833 20.1288 70.3676 20.1822 70.555 20.1781C70.7425 20.1739 70.9243 20.1125 71.0758 20.002C71.2274 19.8916 71.3414 19.7373 71.4027 19.5601C71.464 19.3828 71.4695 19.1911 71.4185 19.0106L69.7409 13.1403L73.9015 9.39612C74.1739 9.15031 74.2739 8.7669 74.1564 8.41927Z" fill="#F3CD03"/>
<path d="M101.171 8.41927C101.113 8.24946 101.007 8.10025 100.866 7.99006C100.724 7.87987 100.554 7.81353 100.375 7.79922L95.1458 7.38371L92.883 2.3747C92.8109 2.21337 92.6937 2.07634 92.5455 1.98016C92.3972 1.88397 92.2244 1.83274 92.0477 1.83264C91.871 1.83254 91.698 1.88359 91.5497 1.97961C91.4014 2.07563 91.284 2.21253 91.2118 2.37378L88.9489 7.38371L83.7198 7.79922C83.5441 7.81314 83.3761 7.87738 83.236 7.98425C83.0959 8.09113 82.9895 8.23612 82.9296 8.40187C82.8697 8.56762 82.8588 8.74712 82.8983 8.91889C82.9377 9.09066 83.0258 9.24743 83.152 9.37044L87.0163 13.1375L85.6497 19.0555C85.6082 19.2347 85.6215 19.4221 85.6878 19.5936C85.7542 19.7651 85.8706 19.9127 86.0219 20.0172C86.1732 20.1217 86.3524 20.1783 86.5362 20.1797C86.7201 20.1811 86.9002 20.1272 87.053 20.025L92.0474 16.6955L97.0417 20.025C97.1979 20.1288 97.3822 20.1822 97.5697 20.1781C97.7572 20.1739 97.9389 20.1125 98.0905 20.002C98.242 19.8916 98.3561 19.7373 98.4173 19.5601C98.4786 19.3828 98.4841 19.1911 98.4331 19.0106L96.7555 13.1403L100.916 9.39612C101.189 9.15031 101.288 8.7669 101.171 8.41927Z" fill="#F3CD03"/>
<path d="M114.032 13.1377L112.665 19.0557C112.623 19.2349 112.636 19.4227 112.702 19.5945C112.768 19.7664 112.884 19.9143 113.036 20.0191C113.187 20.1238 113.367 20.1804 113.551 20.1814C113.735 20.1825 113.915 20.1281 114.068 20.0252L119.062 16.6956L124.056 20.0252C124.213 20.1289 124.397 20.1823 124.584 20.1782C124.772 20.1741 124.954 20.1127 125.105 20.0022C125.257 19.8917 125.371 19.7375 125.432 19.5602C125.493 19.383 125.499 19.1912 125.448 19.0107L123.77 13.1404L127.931 9.39628C128.064 9.27629 128.159 9.11988 128.204 8.94638C128.25 8.77289 128.243 8.58992 128.186 8.4201C128.128 8.25029 128.022 8.10107 127.88 7.99091C127.739 7.88075 127.568 7.81448 127.39 7.80029L122.16 7.38386L119.898 2.37485C119.825 2.21356 119.708 2.0766 119.56 1.98049C119.412 1.88439 119.239 1.83325 119.062 1.83325C118.885 1.83325 118.712 1.88439 118.564 1.98049C118.416 2.0766 118.299 2.21356 118.226 2.37485L115.964 7.38386L110.734 7.79937C110.559 7.81329 110.391 7.87753 110.251 7.98441C110.111 8.09128 110.004 8.23627 109.944 8.40202C109.884 8.56777 109.873 8.74727 109.913 8.91904C109.952 9.09081 110.04 9.24758 110.167 9.37059L114.032 13.1377ZM116.649 9.16972C116.812 9.15682 116.97 9.10012 117.104 9.00555C117.238 8.91098 117.345 8.78203 117.412 8.63222L119.062 4.98071L120.712 8.63222C120.779 8.78203 120.886 8.91098 121.02 9.00555C121.154 9.10012 121.312 9.15682 121.475 9.16972L125.119 9.45865L122.118 12.159C121.858 12.3938 121.754 12.7552 121.849 13.0927L122.999 17.1148L119.572 14.83C119.422 14.729 119.245 14.6751 119.063 14.6751C118.882 14.6751 118.705 14.729 118.555 14.83L114.974 17.2175L115.937 13.0478C115.972 12.8944 115.968 12.7346 115.923 12.5836C115.879 12.4326 115.796 12.2955 115.684 12.1856L112.897 9.46874L116.649 9.16972Z" fill="#F3CD03"/>
</g>
<defs>
<clipPath id="clip0_1479_17216">
<rect width="130.068" height="22.0136" fill="white"/>
</clipPath>
</defs>
</svg>
